<svg width="142" height="142" viewBox="0 0 142 142" fill="none" xmlns="http://www.w3.org/2000/svg">
<path d="M114.894 125.867C102.298 135.565 86.8305 140.792 70.9336 140.722C55.0366 140.652 39.6159 135.288 27.1061 125.479L45.9676 116.637C46.8659 116.215 47.728 115.72 48.5453 115.157C48.7934 114.986 49.0414 114.808 49.2779 114.622C51.3307 113.051 53.0204 111.056 54.2316 108.773C55.1474 107.018 55.7557 105.12 56.0302 103.16C56.2195 101.888 56.3154 100.604 56.317 99.3187C56.317 97.9775 56.2821 96.6364 56.2356 95.2952C56.2085 94.4192 56.1852 93.5393 56.1736 92.6633C56.1581 91.4358 56.1452 90.2071 56.1348 88.977L56.9101 89.3646L58.9257 90.4073L59.8599 90.5663L70.6666 92.4036L82.7293 94.4579L83.0937 106.862L83.2138 110.916L83.272 112.885V113.005L83.6596 113.168L87.9505 114.913L114.894 125.867Z" fill="#F2A196"/>
<path d="M83.2681 113.005C81.8339 113.172 79.3919 112.618 78.043 111.885C73.004 109.102 70.4884 106.846 67.8177 104.877C64.6392 102.528 56.2666 94.9929 56.2666 94.9929C56.2395 94.1168 56.1852 93.5354 56.1736 92.6671C56.1581 91.4397 56.1452 90.2109 56.1349 88.9809L56.9101 89.3685L58.9257 90.4112L59.8599 90.5701L70.6667 92.4074L82.7293 94.4618L83.0937 106.866L83.2138 110.92L83.272 112.889V113.005H83.2681Z" fill="#E88870"/>
<path d="M114.894 125.867C102.298 135.565 86.8305 140.792 70.9336 140.722C55.0366 140.652 39.6159 135.288 27.1061 125.479L45.9676 116.637C46.8659 116.215 47.728 115.72 48.5453 115.157C48.7934 114.986 49.0414 114.808 49.2779 114.622C58.4063 121.118 70.8643 125.215 81.6401 120.366C84.2061 119.203 86.5629 117.327 87.9583 114.916L114.894 125.867Z" fill="#FF2609"/>
<path d="M107.956 48.2345C107.921 48.4632 107.878 48.688 107.828 48.9128C107.559 50.0652 107.127 51.1734 106.545 52.2037L106.514 52.258C106.293 52.6456 106.056 53.0332 105.8 53.4208C105.122 54.4159 104.381 55.3674 103.583 56.2698L103.106 56.8008C102.785 57.1613 102.459 57.5141 102.133 57.8629C103.858 57.4753 105.529 59.0839 105.835 60.8204C106.141 62.557 105.448 64.309 104.591 65.8595C103.091 68.6038 100.928 70.4295 99.0248 72.8133C97.5984 74.5886 96.8076 76.6895 95.2533 78.3873L95.137 78.5152C91.0321 82.8255 84.5511 83.8333 79.1555 85.6745C77.2174 86.3412 56.2008 92.3105 56.2008 93.6129C56.2008 93.33 54.1425 91.2872 51.5493 88.8026C42.2465 79.9688 39.1882 66.3207 44.7234 54.6147C50.6733 42.0171 64.1857 33.0282 77.0546 28.7102C81.0781 27.3613 85.6442 26.4542 89.4584 28.3225C93.2725 30.1909 95.1719 35.9858 92.0089 38.8154C93.9983 37.3102 96.4727 36.5912 98.9589 36.7959C101.255 36.9397 103.421 37.9137 105.052 39.5363C106.345 40.8345 107.273 42.4491 107.746 44.2188C108.097 45.5279 108.168 46.896 107.956 48.2345Z" fill="#845161"/>
<path d="M107.955 48.2345C107.921 48.4632 107.878 48.688 107.828 48.9128C107.793 48.9787 107.758 49.0485 107.723 49.126C107.285 50.126 107.083 51.2036 106.56 52.2037L106.529 52.2579C106.308 52.6456 106.072 53.0332 105.816 53.4208C105.144 54.4207 104.403 55.3726 103.599 56.2698L103.106 56.8008C102.785 57.1613 102.459 57.514 102.133 57.8629C103.858 57.4753 105.529 59.0839 105.835 60.8204C106.141 62.557 105.448 64.309 104.591 65.8595C103.091 68.6038 100.928 70.4295 99.0248 72.8133C97.5983 74.5886 96.8076 76.6895 95.2532 78.3873C93.4487 76.2413 92.2995 73.6215 91.943 70.8404C91.3073 65.7005 91.6949 60.0995 91.5205 54.8976C91.412 51.6261 90.3576 51.0214 92.319 48.374C93.8962 46.4282 95.7204 44.6964 97.7456 43.2226C99.3271 42.1799 101.362 42.0171 103.25 42.2845C104.895 42.5095 106.447 43.1796 107.738 44.2226C108.091 45.53 108.165 46.8967 107.955 48.2345Z" fill="#69303A"/>
<path d="M52.3207 84.7093C55.96 84.7093 58.9102 81.7591 58.9102 78.1198C58.9102 74.4805 55.96 71.5303 52.3207 71.5303C48.6814 71.5303 45.7312 74.4805 45.7312 78.1198C45.7312 81.7591 48.6814 84.7093 52.3207 84.7093Z" fill="#F2A196"/>
<path d="M54.41 84.0194C57.6682 84.0194 60.3095 81.3781 60.3095 78.1198C60.3095 74.8616 57.6682 72.2203 54.41 72.2203C51.1517 72.2203 48.5104 74.8616 48.5104 78.1198C48.5104 81.3781 51.1517 84.0194 54.41 84.0194Z" fill="#E88870"/>
<path d="M54.4991 71.9179L56.1969 93.2369L81.9502 109.083C83.7355 109.748 85.7045 109.724 87.4732 109.016C89.2419 108.308 90.6834 106.966 91.5166 105.253C93.4785 101.248 95.1798 97.1202 96.6099 92.8958C97.6332 89.8569 98.6333 86.7366 98.7302 83.5038C98.8271 80.2711 97.9084 76.9143 96.7921 73.9297C96.6758 73.6157 96.0556 72.6505 96.1099 72.3211C96.5414 69.7369 96.9704 67.1606 97.3968 64.592C97.8852 61.681 98.5093 58.642 97.7844 55.7155C96.9588 52.3587 94.4238 50.9284 92.3384 48.4205C86.8497 55.4907 77.826 59.487 69.9457 63.5376C65.8951 65.6308 54.4991 71.9179 54.4991 71.9179Z" fill="#F2A196"/>
<path d="M97.3193 90.7174C95.6486 97.2759 93.7997 104.032 92.4236 106.459C91.3926 108.269 89.9545 108.618 87.6792 109.172C84.859 109.817 81.9322 109.842 79.1016 109.243C76.2711 108.645 73.6045 107.438 71.2868 105.707L56.1348 93.5044C55.9023 91.2213 55.7472 90.8725 55.6348 88.5778C55.5805 87.5389 55.2472 86.5001 55.4953 85.4768C55.5634 86.0144 55.7932 86.5186 56.1542 86.9226C57.9877 89.4111 60.1273 92.2214 63.174 93.2447C66.3524 94.3106 69.9689 94.4773 73.0389 92.9734C75.7095 91.6632 78.326 89.9538 81.1129 88.8762C82.9666 88.1109 84.9668 87.7654 86.9699 87.8646C89.815 88.0584 91.0321 89.3414 93.1136 91.0353C93.7958 91.5934 94.5594 92.1749 95.4393 92.1981C96.4316 92.1787 96.482 91.357 97.3193 90.7174Z" fill="#845161"/>
<path d="M73.5389 71.0652C75.9034 71.0652 75.9034 74.701 73.5389 74.7204H73.4304C71.0659 74.7204 71.0659 71.0846 73.4304 71.0652H73.5389Z" fill="#00214E"/>
<path d="M92.9663 70.5264C95.1641 70.5458 95.1641 73.8987 92.9663 73.9181H92.8694C90.6755 73.9181 90.6755 70.5458 92.8694 70.5264H92.9663Z" fill="#00214E"/>
<path d="M83.3883 70.0147C83.3573 70.1504 88.5669 84.0194 88.5669 84.0194L81.613 84.3566" stroke="#00214E" stroke-width="2.18376" stroke-miterlimit="10"/>
<path d="M66.9222 67.3324C70.5107 66.5915 74.2016 66.4878 77.8259 67.0262" stroke="#00214E" stroke-width="2.18376" stroke-miterlimit="10"/>
<path d="M89.8111 67.3751C92.0266 66.8611 94.3098 66.7028 96.575 66.906" stroke="#00214E" stroke-width="2.18376" stroke-miterlimit="10"/>
<path d="M81.2137 91.6865C83.3922 92.44 85.7535 92.4834 87.9583 91.8105C88.1947 91.7369 88.094 91.3609 87.8575 91.4229C85.7203 92.0778 83.4301 92.0357 81.3184 91.3027C81.0819 91.2213 80.9812 91.5934 81.2137 91.6903V91.6865Z" fill="#F2A196"/>
<circle cx="70.5" cy="70.5" r="70" stroke="black"/>
</svg>
